<svg xmlns="http://www.w3.org/2000/svg" viewBox="-49 0 512 512"><defs/><path fill="#5c5e71" d="M370.055 260.324c-8.266-12.918-8.727-29.34-1.055-42.625l31.156-53.965-13.844-33.918-40.464 2.563-20.633 35.738c-9.531 16.512-29.703 23.328-47.453 16.375-21.782-8.527-45.485-13.21-70.29-13.21-11.59 0-22.952 1.027-33.988 2.991a191.91 191.91 0 00-36.293 10.22c-17.757 6.952-37.918.136-47.449-16.376L69.11 132.38l-35.914 6.633-18.394 24.722L45.957 217.7c7.66 13.285 7.211 29.707-1.066 42.625-19.2 29.989-30.344 65.64-30.344 103.895C14.547 470.766 100.926 512 207.473 512c106.558 0 192.937-41.234 192.937-147.781 0-38.254-11.144-73.906-30.355-103.895zm0 0"/><path fill="#3b3d4d" d="M207.473 512c-106.547 0-192.926-41.234-192.926-147.781 0-38.254 11.144-73.906 30.344-103.895 8.277-12.918 8.726-29.34 1.066-42.625l-31.156-53.965 18.726-44.136 35.582 12.78 20.633 35.74c9.531 16.51 29.692 23.327 47.45 16.374a191.794 191.794 0 0136.28-10.219v.02c-60.1 18.781-195.382 274.86 34 337.707zm0 0"/><path fill="#f64f44" d="M400.16 54.582C380.426 20.402 345.09 0 305.633 0H109.332C69.875 0 34.523 20.402 14.801 54.57c-19.73 34.18-19.73 74.985 0 109.16l54.312-31.355c-8.394-14.54-8.394-31.898 0-46.438 8.39-14.55 23.434-23.226 40.219-23.226h195.547c16.816 0 32.621 8.707 41.004 23.289 8.363 14.527 8.351 31.86-.031 46.375l54.308 31.355c19.735-34.175 19.735-74.98 0-109.148zm0 0"/><path fill="#d22e29" d="M163.086.004h-53.758c-39.457 0-74.805 20.402-94.527 54.57-19.735 34.18-19.735 74.985 0 109.164l54.308-31.355c-8.394-14.54-8.394-31.903 0-46.442 8.395-14.546 23.434-23.222 40.22-23.222h55.804C118.14 54.25 109.328.004 163.086.004zm0 0"/><path fill="#7d808e" d="M293.512 349.035c0 47.516-38.516 86.035-86.032 86.035s-86.035-38.52-86.035-86.035S159.965 263 207.48 263s86.032 38.52 86.032 86.035zm0 0"/><g fill="#3b3d4d"><path d="M187.848 347.887l16.472-20.61c.715-.918.797-1.855.797-2.48 0-3.27-4.129-6.469-7.21-6.469-1.512 0-2.637.594-3.548 1.871l-19.543 26.598v-24.5c0-2.738-3.156-3.969-6.285-3.969-2.898 0-6.285 1.04-6.285 3.969v60.23c0 2.79 3.258 4.063 6.285 4.063 3.121 0 6.285-1.395 6.285-4.063v-18.07l4.723-5.945 17.219 26.097c.96 1.575 2.52 2.442 4.39 2.442 3.711 0 7.489-3.172 7.489-6.285 0-.868-.235-1.633-.692-2.274zm0 0M258.133 350.48h-15.754c-2.578 0-3.965 2.57-3.965 4.989 0 2.476 1.36 4.988 3.965 4.988h7.246v5.203c0 6.8-3.277 10.395-9.469 10.395-6.222 0-9.375-3.496-9.375-10.395V339.81c0-6.899 3.184-10.395 9.469-10.395 7.805 0 9.11 4.773 9.375 8.922.086 2.648 2.258 4.05 6.285 4.05 3.88 0 6.285-1.003 6.285-6.007 0-10.797-9.007-18.05-22.41-18.05-18.77 0-21.57 13.456-21.57 21.48v25.851c0 13.852 7.793 21.48 21.941 21.48 14.211 0 22.04-7.628 22.04-21.48v-11.027c-.005-2.063-1.4-4.153-4.063-4.153zm0 0"/><path d="M207.48 442.91c-51.761 0-93.875-42.113-93.875-93.875s42.114-93.875 93.875-93.875c51.758 0 93.872 42.113 93.872 93.875s-42.11 93.875-93.872 93.875zm0-172.07c-43.117 0-78.195 35.078-78.195 78.195 0 43.117 35.078 78.195 78.195 78.195 43.114 0 78.192-35.078 78.192-78.195.004-43.117-35.074-78.195-78.192-78.195zm0 0"/></g></svg>
