<?xml version="1.0" encoding="UTF-8" ?>
<!DOCTYPE svg PUBLIC "-//W3C//DTD SVG 1.1//EN" "http://www.w3.org/Graphics/SVG/1.1/DTD/svg11.dtd">
<svg width="512pt" height="512pt" viewBox="0 0 512 512" version="1.1" xmlns="http://www.w3.org/2000/svg">
<g id="#000000ff">
<path d=" M 177.49 0.00 L 334.47 0.00 C 340.26 0.73 345.66 4.31 348.16 9.64 C 350.62 14.60 349.69 20.28 349.88 25.60 C 358.26 25.63 366.63 25.58 375.00 25.61 C 381.21 25.56 387.46 27.67 392.15 31.77 C 397.98 36.73 401.26 44.39 401.06 52.02 C 400.99 66.67 401.19 81.34 400.95 95.99 C 400.39 112.99 388.46 128.79 372.36 134.16 C 363.99 137.24 354.97 136.42 346.23 136.54 C 338.38 164.35 317.04 187.81 290.13 198.31 C 290.09 209.49 290.21 220.67 290.16 231.85 C 296.89 234.53 302.64 239.77 305.33 246.56 C 307.95 252.70 307.03 259.50 307.20 265.99 C 316.33 269.46 323.54 278.12 324.13 288.03 C 324.44 294.41 324.16 300.80 324.26 307.19 C 355.52 307.23 386.79 307.16 418.05 307.22 C 425.51 307.17 432.91 310.55 437.68 316.31 C 441.87 321.16 443.91 327.63 443.75 334.00 C 443.71 373.42 443.74 412.84 443.74 452.26 C 457.16 452.29 470.59 452.24 484.02 452.28 C 490.37 452.08 496.76 455.58 499.63 461.31 C 501.99 466.16 503.69 471.30 505.80 476.27 C 507.88 481.73 510.47 487.02 512.00 492.68 L 512.00 497.13 C 510.85 504.85 504.36 511.19 496.57 512.00 L 15.01 512.00 C 7.26 510.86 0.79 504.41 0.00 496.56 L 0.00 492.95 C 1.96 485.71 5.33 478.96 7.95 471.95 C 10.44 466.39 11.75 459.76 16.89 455.90 C 20.54 452.89 25.39 452.05 30.00 452.25 C 42.75 452.30 55.50 452.25 68.25 452.25 C 68.30 426.48 68.22 400.71 68.30 374.94 C 68.22 361.79 79.82 350.02 92.96 349.93 C 124.55 349.83 156.15 349.86 187.74 349.87 C 187.70 329.92 187.72 309.96 187.76 290.02 C 187.64 279.42 194.99 269.65 204.80 266.00 C 204.98 259.49 204.03 252.65 206.68 246.50 C 209.42 239.75 215.13 234.49 221.87 231.85 C 221.91 220.65 221.85 209.46 221.82 198.26 C 194.95 187.76 173.55 164.37 165.78 136.55 C 156.79 136.42 147.45 137.28 138.89 133.87 C 122.82 128.17 111.18 112.07 110.99 94.99 C 110.91 79.97 110.91 64.95 110.99 49.94 C 111.27 37.61 121.79 26.60 134.09 25.74 C 143.42 25.41 152.78 25.71 162.12 25.60 C 162.31 20.29 161.37 14.63 163.81 9.69 C 166.29 4.33 171.70 0.76 177.49 0.00 M 179.19 17.07 C 179.22 48.38 179.20 79.69 179.20 111.00 C 179.08 132.84 188.95 154.44 205.44 168.73 C 219.51 181.15 238.28 188.00 257.04 187.72 C 273.49 187.54 289.83 181.90 302.82 171.79 C 317.73 160.40 328.19 143.34 331.52 124.86 C 333.36 115.35 332.70 105.62 332.77 95.99 C 332.82 69.68 332.81 43.37 332.81 17.06 C 281.60 17.06 230.40 17.07 179.19 17.07 M 128.05 50.92 C 127.92 63.94 128.05 76.96 127.99 89.99 C 127.97 93.69 127.91 97.47 129.03 101.04 C 131.37 109.03 137.80 115.72 145.76 118.23 C 151.18 120.01 156.95 119.36 162.55 119.47 C 162.33 116.34 162.14 113.21 162.14 110.07 C 162.12 87.61 162.14 65.14 162.13 42.67 C 153.43 42.71 144.73 42.56 136.03 42.73 C 131.76 42.81 128.03 46.65 128.05 50.92 M 349.87 42.67 C 349.86 65.11 349.87 87.54 349.86 109.98 C 349.85 113.15 349.67 116.31 349.45 119.47 C 355.78 119.39 362.44 120.11 368.38 117.43 C 377.64 113.62 384.07 103.99 383.99 93.97 C 384.02 79.96 384.00 65.94 384.00 51.92 C 384.36 47.34 380.64 42.84 375.97 42.75 C 367.28 42.55 358.57 42.71 349.87 42.67 M 238.93 203.19 C 238.93 212.26 238.92 221.33 238.94 230.40 C 250.31 230.40 261.69 230.42 273.06 230.39 C 273.07 221.32 273.07 212.26 273.07 203.19 C 261.80 205.27 250.20 205.28 238.93 203.19 M 222.91 251.91 C 221.05 255.83 222.15 260.35 221.87 264.53 C 244.62 264.51 267.37 264.55 290.12 264.53 C 290.05 260.97 290.42 257.37 289.83 253.84 C 288.91 249.93 284.96 247.19 280.99 247.47 C 264.33 247.51 247.67 247.43 231.01 247.47 C 227.74 247.29 224.45 248.99 222.91 251.91 M 206.29 285.33 C 204.29 288.13 204.88 291.74 204.79 294.96 C 204.82 347.40 204.79 399.83 204.80 452.26 C 238.93 452.26 273.07 452.28 307.20 452.26 C 307.20 400.19 307.20 348.12 307.20 296.05 C 307.14 293.21 307.46 290.30 306.74 287.52 C 305.68 283.79 301.83 281.36 298.02 281.60 C 270.02 281.57 242.02 281.62 214.01 281.60 C 211.02 281.46 207.95 282.79 206.29 285.33 M 324.26 324.27 C 324.30 366.91 324.23 409.56 324.27 452.20 C 358.39 452.35 392.52 452.24 426.64 452.26 C 426.75 413.84 426.60 375.42 426.69 337.00 C 426.63 333.96 427.05 330.56 425.14 327.95 C 423.38 325.28 420.13 324.06 417.03 324.25 C 386.11 324.28 355.18 324.27 324.26 324.27 M 85.33 376.03 C 85.30 401.44 85.37 426.85 85.34 452.27 C 119.47 452.27 153.61 452.27 187.74 452.26 C 187.71 423.83 187.74 395.39 187.74 366.96 C 156.50 366.91 125.26 366.91 94.02 366.96 C 89.17 366.71 84.95 371.21 85.33 376.03 M 27.21 469.50 C 24.06 478.10 20.44 486.53 17.08 495.06 C 176.37 494.96 335.65 494.98 494.93 494.94 C 491.60 486.42 487.95 478.03 484.75 469.46 C 384.15 469.16 283.54 469.43 182.93 469.33 C 131.03 469.46 79.11 469.10 27.21 469.50 Z" />
<path d=" M 242.16 42.20 C 245.71 35.71 254.09 32.51 261.06 34.98 C 265.21 36.31 268.66 39.43 270.51 43.36 C 272.93 48.36 275.31 53.39 277.69 58.41 C 283.76 59.42 289.92 60.03 295.92 61.45 C 304.93 64.07 309.75 75.22 305.84 83.67 C 302.53 90.67 295.21 94.76 290.98 100.99 C 291.69 107.71 293.62 114.30 293.78 121.07 C 293.58 131.06 282.74 139.09 273.15 135.85 C 267.14 133.51 261.80 129.76 256.04 126.88 C 250.48 129.76 245.19 133.21 239.42 135.67 C 230.63 138.91 220.32 132.65 218.59 123.58 C 217.30 115.78 220.90 108.05 220.80 100.35 C 216.49 95.34 211.13 91.22 207.25 85.84 C 201.74 77.49 205.96 64.82 215.50 61.64 C 221.66 59.95 228.11 59.64 234.37 58.43 C 236.99 53.03 239.39 47.52 242.16 42.20 M 247.82 69.72 C 246.69 72.10 244.51 73.98 241.89 74.46 C 235.45 75.72 228.92 76.40 222.45 77.49 C 226.96 82.33 231.75 86.90 236.32 91.68 C 238.48 93.81 239.14 96.99 238.55 99.91 C 237.52 106.16 236.43 112.40 235.45 118.66 C 240.97 115.98 246.04 112.32 251.83 110.23 C 261.27 107.62 268.91 115.25 276.88 118.89 C 275.76 112.29 274.41 105.72 273.35 99.10 C 272.82 96.42 273.79 93.62 275.69 91.70 C 280.25 86.90 285.03 82.31 289.58 77.50 C 283.39 76.56 277.21 75.59 271.02 74.66 C 268.12 74.26 265.41 72.48 264.18 69.78 C 261.35 64.10 258.81 58.29 256.00 52.60 C 253.21 58.28 250.63 64.06 247.82 69.72 Z" />
</g>
</svg>
