<svg xmlns="http://www.w3.org/2000/svg" viewBox="0 0 512 512"><defs/><path fill="#ffd782" d="M295.724 494.345h-44.138a8.829 8.829 0 01-8.828-8.828V282.483a8.829 8.829 0 018.828-8.828h44.138a8.829 8.829 0 018.828 8.828v203.034a8.829 8.829 0 01-8.828 8.828z"/><path fill="#ffc36e" d="M295.724 494.345h-44.138a8.829 8.829 0 01-8.828-8.828V335.448a8.829 8.829 0 018.828-8.828h44.138a8.829 8.829 0 018.828 8.828v150.069a8.829 8.829 0 01-8.828 8.828z"/><path fill="#c3e678" d="M384 494.345h-44.138a8.829 8.829 0 01-8.828-8.828V123.586a8.829 8.829 0 018.828-8.828H384a8.829 8.829 0 018.828 8.828v361.931a8.829 8.829 0 01-8.828 8.828z"/><path fill="#a5d76e" d="M384 494.345h-44.138a8.829 8.829 0 01-8.828-8.828v-256a8.829 8.829 0 018.828-8.828H384a8.829 8.829 0 018.828 8.828v256a8.829 8.829 0 01-8.828 8.828z"/><path fill="#00d2ff" d="M119.172 494.345H75.034a8.829 8.829 0 01-8.828-8.828V335.448a8.829 8.829 0 018.828-8.828h44.138a8.829 8.829 0 018.828 8.828v150.069a8.829 8.829 0 01-8.828 8.828z"/><path fill="#9be6d2" d="M472.276 494.345h-44.138a8.829 8.829 0 01-8.828-8.828V70.621a8.829 8.829 0 018.828-8.828h44.138a8.829 8.829 0 018.828 8.828v414.897a8.83 8.83 0 01-8.828 8.827z"/><path fill="#78d2be" d="M472.276 494.345h-44.138a8.829 8.829 0 01-8.828-8.828V176.552a8.829 8.829 0 018.828-8.828h44.138a8.829 8.829 0 018.828 8.828v308.966a8.83 8.83 0 01-8.828 8.827z"/><path fill="#ff6464" d="M207.448 494.345H163.31a8.829 8.829 0 01-8.828-8.828v-256a8.829 8.829 0 018.828-8.828h44.138a8.829 8.829 0 018.828 8.828v256a8.829 8.829 0 01-8.828 8.828z"/><path fill="#d2555a" d="M207.448 494.345H163.31a8.829 8.829 0 01-8.828-8.828V282.483a8.829 8.829 0 018.828-8.828h44.138a8.829 8.829 0 018.828 8.828v203.034a8.829 8.829 0 01-8.828 8.828z"/><path fill="#18bdf6" d="M119.172 494.345H75.034a8.829 8.829 0 01-8.828-8.828v-97.103a8.829 8.829 0 018.828-8.828h44.138a8.829 8.829 0 018.828 8.828v97.103a8.829 8.829 0 01-8.828 8.828z"/><g fill="#d7deed"><path d="M26.483 450.207H8.828a8.829 8.829 0 010-17.656h17.655v17.656zM26.483 397.241H8.828a8.829 8.829 0 010-17.656h17.655v17.656zM26.483 344.276H8.828a8.829 8.829 0 010-17.656h17.655v17.656zM26.483 291.31H8.828a8.829 8.829 0 010-17.656h17.655v17.656zM26.483 238.345H8.828a8.829 8.829 0 010-17.656h17.655v17.656zM26.483 185.379H8.828a8.829 8.829 0 010-17.656h17.655v17.656zM26.483 132.414H8.828a8.829 8.829 0 010-17.656h17.655v17.656zM26.483 79.448H8.828a8.829 8.829 0 010-17.655h17.655v17.655z"/></g><path fill="#c7cfe2" d="M26.483 494.345a8.829 8.829 0 01-8.828-8.828V17.655a8.829 8.829 0 0117.656 0v467.862a8.83 8.83 0 01-8.828 8.828z"/><path fill="#afb9d2" d="M0 494.345a8.829 8.829 0 018.828-8.828h494.345a8.829 8.829 0 010 17.656H8.828A8.83 8.83 0 010 494.345z"/></svg>
