<svg height="512pt" viewBox="-14 0 511 512" width="512pt" xmlns="http://www.w3.org/2000/svg"><path d="m136.75 172.84375h122.792969c4.195312 0 7.59375-3.398438 7.59375-7.589844 0-4.195312-3.398438-7.59375-7.59375-7.59375h-122.792969c-4.191406 0-7.589844 3.398438-7.589844 7.59375 0 4.191406 3.398438 7.589844 7.589844 7.589844zm0 0"/><path d="m110.84375 138.175781c-3.277344-2.609375-8.054688-2.070312-10.667969 1.210938l-20.375 25.601562-5.046875-6.945312c-2.464844-3.394531-7.210937-4.144531-10.601562-1.683594-3.394532 2.464844-4.144532 7.210937-1.683594 10.605469l10.914062 15.023437c2.933594 4.042969 8.945313 4.207031 12.082032.265625l26.59375-33.414062c2.609375-3.277344 2.066406-8.054688-1.214844-10.664063zm0 0"/><path d="m136.75 236.261719h122.792969c4.195312 0 7.59375-3.398438 7.59375-7.59375 0-4.191407-3.398438-7.589844-7.59375-7.589844h-122.792969c-4.191406 0-7.589844 3.398437-7.589844 7.589844 0 4.195312 3.398438 7.59375 7.589844 7.59375zm0 0"/><path d="m190.0625 256h-53.3125c-4.191406 0-7.589844 3.398438-7.589844 7.589844 0 4.195312 3.398438 7.59375 7.589844 7.59375h53.3125c4.191406 0 7.59375-3.398438 7.59375-7.59375 0-4.191406-3.402344-7.589844-7.59375-7.589844zm0 0"/><path d="m110.84375 201.589844c-3.277344-2.609375-8.054688-2.066406-10.667969 1.214844l-20.375 25.601562-5.046875-6.949219c-2.464844-3.390625-7.210937-4.144531-10.601562-1.679687-3.394532 2.460937-4.144532 7.210937-1.683594 10.601562l10.914062 15.027344c2.949219 4.058594 8.960938 4.1875 12.082032.265625l26.59375-33.414063c2.609375-3.28125 2.066406-8.054687-1.214844-10.667968zm0 0"/><path d="m434.152344 274.824219c-19.070313-15.515625-42.128906-25.445313-66.296875-28.734375v-10.890625h6.972656c13.039063 0 23.632813-10.605469 23.632813-23.632813 0-13.035156-10.59375-23.644531-23.632813-23.644531h-47.175781v-127.34375c0-9.433594-7.671875-17.105469-17.105469-17.105469h-95.96875c-3.675781-24.566406-24.917969-43.472656-50.496094-43.472656s-46.820312 18.90625-50.507812 43.472656c-12.097657 0-85.894531 0-95.96875 0-9.433594 0-17.105469 7.671875-17.105469 17.105469v48.894531c0 4.191406 3.402344 7.589844 7.589844 7.589844 4.203125 0 7.59375-3.398438 7.59375-7.589844v-48.894531c0-1.0625.867187-1.925781 1.921875-1.925781h63.277343v16.527344h-37.132812c-6.359375 0-11.539062 5.175781-11.539062 11.539062v382.03125c0 6.367188 5.179687 11.539062 11.539062 11.539062h219.714844c7.179687 6.125 15.574218 11.839844 24.582031 16.527344h-270.441406c-1.054688 0-1.921875-.859375-1.921875-1.921875v-355.058593c0-4.1875-3.390625-7.589844-7.59375-7.589844-4.1875 0-7.589844 3.402344-7.589844 7.589844v355.058593c0 9.433594 7.671875 17.105469 17.105469 17.105469h292.941406c3.746094 0 7.21875-1.203125 10.03125-3.269531 9.542969 2.15625 19.34375 3.269531 29.210937 3.269531 75.089844 0 133.640626-61.070312 133.640626-133.492188 0-40.414062-17.964844-78.207031-49.277344-103.683593zm-109.261719-71.71875h49.9375c4.667969 0 8.453125 3.796875 8.453125 8.460937 0 4.65625-3.785156 8.453125-8.453125 8.453125-10.09375 0-39.847656 0-49.9375 0-4.667969 0-8.453125-3.796875-8.453125-8.453125 0-4.664062 3.785156-8.460937 8.453125-8.460937zm27.78125 32.09375v9.6875c-1.871094-.042969-3.753906-.039063-5.625 0v-9.6875zm-20.808594 0v10.871093c-1.40625.191407-2.8125.40625-4.210937.636719v-11.507812zm-235.796875-176.546875h24.542969c4.191406 0 7.59375-3.398438 7.59375-7.589844 0-2.601562.28125-5.140625.808594-7.589844 3.492187-16.15625 17.882812-28.289062 35.070312-28.289062 17.175781 0 31.578125 12.132812 35.070313 28.289062.527344 2.449219.808594 4.988282.808594 7.589844 0 4.191406 3.390624 7.589844 7.59375 7.589844h24.542968v40.355468h-136.03125c0-7.933593 0-32.164062 0-40.355468zm345.625 394.492187c-61.929687 76.117188-185.039062 47.792969-207.164062-47.996093-.941406-4.078126-5.019532-6.628907-9.109375-5.6875-4.078125.941406-6.628907 5.019531-5.6875 9.109374 4.886719 21.164063 14.59375 40.363282 28.460937 56.539063h-200.800781v-374.746094h33.492187v9.484375c0 7.90625 6.4375 14.339844 14.351563 14.339844h137.691406c7.917969 0 14.355469-6.433594 14.355469-14.339844v-9.484375h33.480469v69.746094c0 4.199219 3.398437 7.589844 7.589843 7.589844 4.191407 0 7.589844-3.390625 7.589844-7.589844v-73.390625c0-6.363281-5.171875-11.539062-11.535156-11.539062h-37.125v-16.527344h63.265625c1.0625 0 1.925781.863281 1.925781 1.925781v130.886719c-6.730468 4.160156-11.214844 11.621094-11.214844 20.101562 0 8.484375 4.484376 15.933594 11.214844 20.089844v18.523438c-5.648437 1.640624-11.164062 3.644531-16.53125 6.003906v-65.710938c0-4.1875-3.398437-7.589844-7.589844-7.589844-4.191406 0-7.589843 3.402344-7.589843 7.589844v73.605469c-12.976563 7.84375-24.667969 17.953125-34.515625 30.058594-19.199219 23.613281-29.554688 52.144531-29.949219 82.511719-.050781 4.1875 3.3125 7.628906 7.5 7.691406 4.179687.019531 7.632813-3.308594 7.683594-7.5 1.261719-98.785156 116.464843-152.566406 193.09375-90.242188 51.171875 41.632813 58.019531 116.261719 17.117187 166.546875zm0 0"/><path d="m365.953125 270.140625c-95.757813-14.210937-162.167969 95.058594-104.046875 173.488281 62.59375 84.4375 197.457031 40.113282 197.457031-65.433594 0-54.378906-40.488281-100.488281-93.410156-108.054687zm-91.851563 164.441406c-40.25-54.300781-11.648437-132.164062 53.550782-147.792969 35.367187-8.570312 74.605468 3.988282 97.964844 35.484376 15 20.234374 21.214843 45.101562 17.519531 70.019531-12.230469 82.25-118.773438 110.097656-169.035157 42.289062zm0 0"/><path d="m376.609375 352.382812c2.261719-3.53125 1.234375-8.226562-2.296875-10.488281-3.527344-2.261719-8.222656-1.234375-10.484375 2.296875l-8.175781 12.757813c-22.171875-4.925781-35.457032 18.824219-23.667969 34.726562 7.199219 9.714844 21.074219 12.070313 31.125 4.625 10.261719-7.585937 11.539063-21.871093 4.976563-30.617187zm-22.539063 31.722657c-5.039062 3.730469-12.117187-.460938-11.203124-6.710938.554687-3.707031 3.714843-6.042969 6.910156-6.042969 6.859375 0 9.800781 8.65625 4.292968 12.753907zm0 0"/><path d="m349.859375 321.144531c4.191406 0 7.589844-3.398437 7.589844-7.59375v-16.507812c0-4.191407-3.398438-7.589844-7.589844-7.589844s-7.589844 3.398437-7.589844 7.589844v16.507812c0 4.195313 3.398438 7.59375 7.589844 7.59375zm0 0"/><path d="m382.292969 329.835938c2.621093 0 5.175781-1.363282 6.582031-3.796876l8.253906-14.296874c2.09375-3.628907.851563-8.273438-2.78125-10.367188-3.628906-2.097656-8.273437-.851562-10.367187 2.777344l-8.253907 14.296875c-2.933593 5.074219.769532 11.386719 6.566407 11.386719zm0 0"/><path d="m409.84375 352.566406 14.292969-8.253906c3.632812-2.097656 4.875-6.742188 2.78125-10.371094-2.097657-3.632812-6.742188-4.875-10.371094-2.777344l-14.296875 8.253907c-3.628906 2.09375-4.875 6.738281-2.777344 10.367187 2.097656 3.632813 6.738282 4.878906 10.371094 2.78125zm0 0"/><path d="m431.246094 370.839844h-16.507813c-4.191406 0-7.589843 3.398437-7.589843 7.589844 0 4.191406 3.398437 7.589843 7.589843 7.589843h16.507813c4.191406 0 7.589844-3.398437 7.589844-7.589843 0-4.191407-3.398438-7.589844-7.589844-7.589844zm0 0"/><path d="m424.136719 412.550781-14.292969-8.253906c-3.632812-2.097656-8.273438-.855469-10.371094 2.777344-2.097656 3.628906-.851562 8.273437 2.777344 10.367187 15.542969 8.976563 15.425781 9.273438 18.085938 9.273438 7.738281 0 10.515624-10.289063 3.800781-14.164063zm0 0"/><path d="m388.875 430.820312c-2.097656-3.628906-6.742188-4.875-10.371094-2.777343-3.628906 2.097656-4.875 6.738281-2.777344 10.371093l8.253907 14.292969c1.40625 2.4375 3.957031 3.796875 6.582031 3.796875 5.785156 0 9.5-6.304687 6.566406-11.386718zm0 0"/><path d="m349.859375 435.71875c-4.191406 0-7.589844 3.398438-7.589844 7.589844v16.507812c0 4.191406 3.398438 7.59375 7.589844 7.59375s7.589844-3.402344 7.589844-7.59375v-16.507812c0-4.191406-3.398438-7.589844-7.589844-7.589844zm0 0"/><path d="m321.214844 428.042969c-3.628906-2.097657-8.273438-.855469-10.367188 2.777343l-8.253906 14.296876c-2.097656 3.628906-.851562 8.273437 2.777344 10.367187 3.628906 2.097656 8.273437.855469 10.371094-2.777344l8.253906-14.296875c2.09375-3.628906.851562-8.269531-2.78125-10.367187zm0 0"/><path d="m289.878906 404.296875-14.296875 8.253906c-6.707031 3.871094-3.933593 14.164063 3.800781 14.164063 2.699219 0 2.722657-.402344 18.085938-9.273438 3.632812-2.09375 4.875-6.738281 2.777344-10.367187-2.09375-3.632813-6.738282-4.875-10.367188-2.777344zm0 0"/><path d="m292.574219 378.429688c0-4.191407-3.398438-7.589844-7.59375-7.589844h-16.507813c-4.191406 0-7.589844 3.398437-7.589844 7.589844 0 4.191406 3.398438 7.589843 7.589844 7.589843h16.507813c4.195312 0 7.59375-3.398437 7.59375-7.589843zm0 0"/><path d="m275.582031 344.3125c15.542969 8.972656 15.421875 9.273438 18.085938 9.273438 7.734375 0 10.511719-10.292969 3.800781-14.167969l-14.296875-8.253907c-3.628906-2.097656-8.273437-.855468-10.367187 2.777344-2.097657 3.628906-.851563 8.273438 2.777343 10.371094zm0 0"/><path d="m315.742188 304.152344c-2.097657-3.632813-6.742188-4.875-10.371094-2.777344-3.628906 2.09375-4.875 6.738281-2.777344 10.367188l8.253906 14.296874c1.40625 2.4375 3.957032 3.796876 6.578125 3.796876 5.789063 0 9.503907-6.308594 6.570313-11.386719zm0 0"/></svg>