<svg xmlns="http://www.w3.org/2000/svg" viewBox="0 0 512 512"><defs/><g fill="#f3b27a"><path d="M269.51 0h13.19c12.23.79 24.58 1.93 36.23 5.94 9.74 3.47 18.88 8.63 26.74 15.37 11.53 9.77 22.55 20.12 33.82 30.19 11.87 11.45 23.98 22.68 35.15 34.83 21.4 21.97 41.08 45.83 56.62 72.34 6.21 11.55 11.92 23.52 14.95 36.35 4.13 15.33 4.28 31.45 2.46 47.14-4.64 42.48-19.87 83.94-44.84 118.71-22.5 32.41-52.36 59.27-85.4 80.63-26.5 17.04-55.09 30.75-84.78 41.26-33.46 12.25-68.45 19.71-103.6 25.09-12.79 1.84-25.6 3.43-38.5 4.15h-3.12c-20.03-.65-40.02-6.55-56.81-17.58-14.25-9.12-26.07-21.76-34.81-36.21 10.06-.54 20.13-.96 30.19-.26 13.32.3 26.65.05 39.97.13 10.36-.45 20.77-1.06 30.96-3.08 11.67-2.23 23.55-3.17 35.19-5.58 18.78-3.39 37.33-7.98 55.55-13.63 10.65-3.22 21.42-6.14 31.67-10.52 10.6-3.56 20.97-7.72 31.54-11.35 30.94-12.92 61.3-28.28 87.17-49.86 31.23-24.99 53.71-60.87 61.85-100.1 1.73-9.75 3.03-19.57 4.71-29.33 1.85-14.46-2.42-28.89-8.08-42.06-2.72-7-6.77-13.35-10.07-20.07-6.75-13.87-14.67-27.12-22.54-40.38-3.77-6.52-8.31-12.58-11.87-19.24-4.18-7.89-9.57-15.04-14.43-22.51-6.69-10.08-14.63-19.24-22.99-27.96-8.87-10.21-19.32-18.91-30.21-26.88-7.24-5.42-15.82-8.56-24.31-11.43-11.01-3.64-22.69-4.13-34.16-4.97-7.64-.43-15.3-.34-22.94-.51-6.5-.18-12.98.8-19.48.36 3.91-7.07 8.87-14.99 17.38-16.79C251.02.68 260.3.6 269.51 0z"/><path d="M246.96 50.03c3.22-2.58 7.58-5.96 11.88-3.89 4.26 1.75 4.88 6.79 6.64 10.48 3.15 6.92 7.76 13.77 14.8 17.17 6.2 3.02 12.72 5.3 19.06 8.01 2.07.98 4.59 2.09 5.25 4.54.87 3.89.63 7.92.77 11.88-5.78-1.87-11.57-3.67-17.37-5.48-8.4-2.48-16.63-5.83-23.6-11.24-5.03-3.35-8.39-8.48-11.38-13.61-1.61 2.62-2.72 6.22-6.03 7.1-4.92 1.83-11.01-2.62-9.91-8.03 1.22-6.51 5.12-12.42 9.89-16.93z"/></g><path fill="#fac68c" d="M224.53 18.98c6.5.44 12.98-.54 19.48-.36 7.64.17 15.3.08 22.94.51 11.47.84 23.15 1.33 34.16 4.97 8.49 2.87 17.07 6.01 24.31 11.43 10.89 7.97 21.34 16.67 30.21 26.88 8.36 8.72 16.3 17.88 22.99 27.96 4.86 7.47 10.25 14.62 14.43 22.51 3.56 6.66 8.1 12.72 11.87 19.24 7.87 13.26 15.79 26.51 22.54 40.38 3.3 6.72 7.35 13.07 10.07 20.07 5.66 13.17 9.93 27.6 8.08 42.06-1.68 9.76-2.98 19.58-4.71 29.33-8.14 39.23-30.62 75.11-61.85 100.1-25.87 21.58-56.23 36.94-87.17 49.86-10.57 3.63-20.94 7.79-31.54 11.35-10.25 4.38-21.02 7.3-31.67 10.52-18.22 5.65-36.77 10.24-55.55 13.63-11.64 2.41-23.52 3.35-35.19 5.58-10.19 2.02-20.6 2.63-30.96 3.08-13.32-.08-26.65.17-39.97-.13-10.06-.7-20.13-.28-30.19.26-7.46-12.96-12.43-27.4-13.95-42.31-2.15-22.22 1.5-45.33 12.16-65.09 8.74-16.17 22.49-29.46 38.69-38.07 18.15-9.86 38.76-14.35 59.24-15.68 18.54-.99 37.13-.17 55.68-.62 5.91-4.53 10.31-11 16.37-15.5 28.08-24.48 64.75-38.97 102.01-40 7.37-.59 14.84.22 22.13-1.26 13.19-2.39 25.48-10.96 31.02-23.35 4.41-9.46 4.18-20.75-.09-30.21-3.32-7.23-7.01-14.28-10.93-21.2-13.35-23.02-28.14-45.18-43.78-66.7-.14-3.96.1-7.99-.77-11.88-.66-2.45-3.18-3.56-5.25-4.54-6.34-2.71-12.86-4.99-19.06-8.01-7.04-3.4-11.65-10.25-14.8-17.17-1.76-3.69-2.38-8.73-6.64-10.48-4.3-2.07-8.66 1.31-11.88 3.89-4.77 4.51-8.67 10.42-9.89 16.93-1.1 5.41 4.99 9.86 9.91 8.03 3.31-.88 4.42-4.48 6.03-7.1 2.99 5.13 6.35 10.26 11.38 13.61 6.97 5.41 15.2 8.76 23.6 11.24-1.98 3.02-4 6.13-6.99 8.26-4.48 3.6-10.34 4.79-15.97 4.79-5.66-.04-11.33.16-16.98-.2-12.54-.89-24.42-7.81-31.53-18.15-6.77-9.6-9.28-22.1-6.53-33.54 3.15-12.27 8.58-23.79 14.54-34.92z"/></svg>
