<svg xmlns="http://www.w3.org/2000/svg" viewBox="0 0 512 512"><defs/><path fill="#c7cfe2" d="M367.396 150.354l-14.896-9.475 26.177-41.142 14.897 9.475z"/><path fill="#d7deed" d="M402.025 119.829l4.744-7.452a8.828 8.828 0 00-2.706-12.188l-21.641-13.778a8.828 8.828 0 00-12.188 2.706l-4.744 7.452a8.828 8.828 0 002.706 12.188l21.641 13.778a8.828 8.828 0 0012.188-2.706z"/><path fill="#c7cfe2" d="M144.604 150.354l-26.178-41.142 14.897-9.475 26.177 41.142z"/><path fill="#d7deed" d="M256 105.931c-29.207 0-52.966-23.758-52.966-52.966S226.793 0 256 0s52.966 23.758 52.966 52.966-23.759 52.965-52.966 52.965zm0-88.276c-19.474 0-35.31 15.837-35.31 35.31s15.837 35.31 35.31 35.31 35.31-15.837 35.31-35.31-15.836-35.31-35.31-35.31z"/><path fill="#c7cfe2" d="M247.172 61.793h17.655v52.966h-17.655z"/><g fill="#d7deed"><circle cx="256" cy="308.966" r="203.034"/><path d="M269.241 70.621h-26.483a8.829 8.829 0 01-8.828-8.828v-8.828a8.829 8.829 0 018.828-8.828h26.483a8.829 8.829 0 018.828 8.828v8.828a8.829 8.829 0 01-8.828 8.828z"/></g><circle cx="256" cy="308.966" r="185.379" fill="#c7cfe2"/><circle cx="256" cy="308.966" r="167.724" fill="#fff"/><path fill="#ffcdcd" d="M349.63 402.595c23.962-23.961 38.784-57.065 38.784-93.63 0-73.13-59.284-132.414-132.414-132.414v132.414l93.63 93.63z"/><path fill="#d7deed" d="M109.975 119.829l-4.744-7.452a8.828 8.828 0 012.706-12.188l21.641-13.778a8.828 8.828 0 0112.188 2.706l4.744 7.452a8.828 8.828 0 01-2.706 12.188l-21.641 13.778a8.828 8.828 0 01-12.188-2.706z"/><g fill="#5b5d6e"><path d="M256 158.897a8.829 8.829 0 00-8.828 8.828v17.655a8.829 8.829 0 0017.656 0v-17.655a8.828 8.828 0 00-8.828-8.828zM256 423.724a8.829 8.829 0 00-8.828 8.828v17.655a8.829 8.829 0 0017.656 0v-17.655a8.829 8.829 0 00-8.828-8.828zM406.069 308.966a8.829 8.829 0 00-8.828-8.828h-17.655a8.829 8.829 0 000 17.656h17.655a8.83 8.83 0 008.828-8.828zM141.241 308.966a8.829 8.829 0 00-8.828-8.828h-17.655a8.829 8.829 0 000 17.656h17.655a8.829 8.829 0 008.828-8.828z"/></g><g fill="#8f96ac"><path d="M180.966 438.929a8.826 8.826 0 0012.058-3.231l8.828-15.289a8.828 8.828 0 00-3.231-12.059 8.826 8.826 0 00-12.058 3.231l-8.828 15.289a8.828 8.828 0 003.231 12.059zM313.379 209.581a8.828 8.828 0 0012.059-3.231l8.828-15.289a8.828 8.828 0 00-15.29-8.827l-8.828 15.289a8.828 8.828 0 003.231 12.058zM126.037 233.931a8.826 8.826 0 003.231 12.058l15.289 8.828a8.826 8.826 0 0012.058-3.231 8.826 8.826 0 00-3.231-12.058l-15.289-8.828a8.827 8.827 0 00-12.058 3.231zM355.384 366.345a8.828 8.828 0 003.231 12.059l15.289 8.828a8.828 8.828 0 008.827-15.29l-15.289-8.828a8.827 8.827 0 00-12.058 3.231zM331.034 438.929a8.828 8.828 0 01-12.059-3.231l-8.828-15.289a8.828 8.828 0 0115.29-8.828l8.828 15.289a8.828 8.828 0 01-3.231 12.059zM198.621 209.581a8.826 8.826 0 01-12.058-3.231l-8.828-15.289a8.826 8.826 0 013.231-12.058 8.826 8.826 0 0112.058 3.231l8.828 15.289a8.828 8.828 0 01-3.231 12.058zM385.963 233.931a8.826 8.826 0 01-3.231 12.058l-15.289 8.828a8.828 8.828 0 01-12.059-3.231 8.826 8.826 0 013.231-12.058l15.289-8.828c4.222-2.437 9.622-.991 12.059 3.231zM156.616 366.345a8.828 8.828 0 01-3.231 12.059l-15.289 8.828a8.828 8.828 0 01-8.827-15.29l15.289-8.828c4.221-2.438 9.62-.991 12.058 3.231z"/></g><path fill="#ff6464" d="M353.103 414.897a8.796 8.796 0 01-6.241-2.586l-114.758-114.76c-3.448-3.448-3.448-9.035 0-12.483s9.035-3.448 12.483 0l114.759 114.759a8.825 8.825 0 010 12.483 8.8 8.8 0 01-6.243 2.587z"/><circle cx="256" cy="308.966" r="17.655" fill="#c7cfe2"/></svg>
